<svg version="1.1" xmlns="http://www.w3.org/2000/svg" viewBox="0 0 1210.605468750001 553.46875" width="2421.210937500002" height="1106.9375" filter="invert(93%) hue-rotate(180deg)">
  <!-- svg-source:excalidraw -->
  
  <defs>
    <style>
      @font-face {
        font-family: "Virgil";
        src: url("https://excalidraw.com/Virgil.woff2");
      }
      @font-face {
        font-family: "Cascadia";
        src: url("https://excalidraw.com/Cascadia.woff2");
      }
    </style>
  </defs>
  <g stroke-linecap="round" transform="translate(569.2795455708433 150.40234375) rotate(0 315.6629615895788 196.533203125)"><path d="M0.35 0.7 C136.37 -1.04, 272.04 -1.04, 632.06 -0.68 M632.12 -0.08 C629.1 127.52, 630.32 253.58, 632.38 393.87 M631.01 392.34 C421.67 394.27, 212.03 394.11, -0.42 393.21 M1.12 392.21 C-0.46 238.2, 0.55 81.87, -0.7 -0.19" stroke="#000000" stroke-width="1.5" fill="none" stroke-dasharray="1.5 7"></path></g><g stroke-linecap="round" transform="translate(306.8671875 152.8203125) rotate(0 118 60.5)"><path d="M-0.92 0.69 C81.96 -0.48, 166 -0.29, 236.44 -1.33 M0.31 0.38 C84.43 1.17, 169.22 1.25, 235.38 0.09 M234.09 -1.15 C236.62 26.99, 237.07 49.6, 235.31 120.51 M236.49 -0.8 C236.45 32.59, 236.89 64.43, 235.98 121.77 M235.79 121.66 C182.01 119.81, 124.14 122.06, 1.2 121.65 M235.3 120.47 C148.02 121.98, 59.64 122.56, -0.47 120.3 M1.18 119.2 C0.61 80.64, -0.51 42.3, 1.84 -0.33 M0.69 120.76 C-0.22 88.98, -0.14 56.81, -0.41 0.87" stroke="#c92a2a" stroke-width="1" fill="none"></path></g><g transform="translate(311.8671875 188.3203125) rotate(0 113 25)"><text x="113" y="18" font-family="Virgil, Segoe UI Emoji" font-size="20px" fill="#c92a2a" text-anchor="middle" style="white-space: pre;" direction="ltr">Ryzen 9</text><text x="113" y="43" font-family="Virgil, Segoe UI Emoji" font-size="20px" fill="#c92a2a" text-anchor="middle" style="white-space: pre;" direction="ltr">3900X</text></g><g stroke-linecap="round" transform="translate(571.4765625 10.529296875) rotate(0 137.5 58.5)"><path d="M0.92 -0.18 C107.66 1.18, 212.08 1.95, 273.63 0.53 M0.47 0.77 C65.73 0.18, 132.56 0.58, 275.35 0.09 M275.09 -1.34 C276.08 40.76, 275.49 84.95, 274.69 117.08 M274.38 -0.75 C273.91 32.22, 273.1 66.42, 274.63 116.68 M275.4 116.38 C177.39 119.17, 79.43 117.24, 0.52 116.01 M274.64 117.09 C188.25 118.01, 100.89 117.66, -0.36 116.79 M-1.36 117.52 C0.96 74.56, 0.28 33.13, 0.07 0.65 M-0.36 117.83 C1.34 84.79, 0.69 51.81, -0.09 0.79" stroke="#2b8a3e" stroke-width="1" fill="none"></path></g><g transform="translate(576.4765625 44.029296875) rotate(0 132.5 25)"><text x="132.5" y="18" font-family="Virgil, Segoe UI Emoji" font-size="20px" fill="#2b8a3e" text-anchor="middle" style="white-space: pre;" direction="ltr">GTX 1080 Hybrid FTW </text><text x="132.5" y="43" font-family="Virgil, Segoe UI Emoji" font-size="20px" fill="#2b8a3e" text-anchor="middle" style="white-space: pre;" direction="ltr">8 GB GDDR5</text></g><g stroke-linecap="round" transform="translate(317.03125 315.64453125) rotate(0 22 83.4296875)"><path d="M-0.68 -1.32 C12.45 1.67, 24.13 -0.95, 42.77 -1.92 M-0.87 -0.72 C10.67 0.32, 20.62 0.53, 44.66 -0.97 M45.97 -0.52 C42.23 50.24, 45.22 98.09, 45.55 167.98 M43.39 0.56 C44.39 37.76, 45.72 72.97, 43.56 167.6 M45.72 167.39 C32.95 167.92, 20.27 167.92, -1.72 165.75 M43.96 167.12 C25.7 166.48, 9.44 167.55, -0.57 166.48 M-1.89 167.88 C-2.77 129.78, -2.32 93.13, -1.23 0.21 M0.02 166.32 C-0.37 126.72, -0.94 85.53, -0.94 0.97" stroke="#1864ab" stroke-width="1" fill="none"></path></g><g stroke-linecap="round" transform="translate(375.966796875 316.4375) rotate(0 22 83.4296875)"><path d="M1.28 -0.54 C9.6 0.88, 16.46 -1.32, 43.81 1.37 M-0.24 0.7 C17.46 0.87, 34.09 0.86, 43.77 -0.89 M45.63 -0.07 C41.19 64.19, 44.07 126.07, 42.15 168.43 M44.79 0.75 C44.18 57.44, 44.1 112.5, 44.86 166.41 M43.04 166.51 C29.44 166.15, 17.46 167, 1.94 167.85 M43.31 166.26 C28.45 166.38, 15.71 166.75, 0.26 166.3 M-0.85 166.35 C-1.65 115.62, -1.21 64.77, -0.08 -1.71 M0.53 167.47 C-1.67 110.24, -0.71 52.97, -0.15 -0.66" stroke="#5f3dc4" stroke-width="1" fill="none"></path></g><g stroke-linecap="round" transform="translate(437.107421875 316.5) rotate(0 22 83.4296875)"><path d="M0.77 1.24 C13.76 1.23, 32.66 -2.06, 45.98 -1.87 M0.14 -0.73 C10.66 -0.29, 22.55 -0.17, 43.8 0.56 M44.65 1.49 C43.64 52.46, 44.42 105.85, 43.91 168.82 M44.02 0.6 C43.97 55.07, 44.18 110.67, 43.54 166.76 M44.85 167.94 C33.55 167.55, 25.13 164.94, 1.01 167.25 M43.91 165.9 C29.96 167.1, 14.22 167.04, 0.93 167.08 M-0.88 166.11 C-1.64 131.34, -0.65 97.31, -1.54 -0.83 M-0.88 166.77 C-0.2 110.31, -0.18 52.47, -0.7 -0.35" stroke="#1864ab" stroke-width="1" fill="none"></path></g><g stroke-linecap="round" transform="translate(494.517578125 316.140625) rotate(0 22 83.4296875)"><path d="M0.45 -1.8 C11.95 -1.64, 23.35 -1.16, 42.23 -0.45 M-0.41 0.4 C11.86 0.23, 22.09 0.25, 44.42 0.19 M43.3 0.91 C44.03 55.79, 40.99 114.6, 45.76 167.78 M44.94 0.2 C44.42 58.5, 44.72 116.07, 44.85 166.02 M42.51 165.78 C26.71 167.89, 9.69 164.83, 1.5 165 M43.92 165.89 C28.04 166.59, 12.08 167.35, 0.83 167.23 M1.29 167.95 C-0.48 118.86, 0.6 71.01, 1.4 -1.73 M0.03 166.12 C0.21 108.67, -0.31 52.86, 0.73 -0.38" stroke="#5f3dc4" stroke-width="1" fill="none"></path></g><g transform="translate(322.03125 386.57421875) rotate(0 17 12.5)"><text x="17" y="18" font-family="Virgil, Segoe UI Emoji" font-size="20px" fill="#1864ab" text-anchor="middle" style="white-space: pre;" direction="ltr">8</text></g><g transform="translate(380.966796875 387.3671875) rotate(0 17 12.5)"><text x="17" y="18" font-family="Virgil, Segoe UI Emoji" font-size="20px" fill="#5f3dc4" text-anchor="middle" style="white-space: pre;" direction="ltr">4</text></g><g transform="translate(442.107421875 387.4296875) rotate(0 17 12.5)"><text x="17" y="18" font-family="Virgil, Segoe UI Emoji" font-size="20px" fill="#1864ab" text-anchor="middle" style="white-space: pre;" direction="ltr">8</text></g><g transform="translate(499.517578125 387.0703125) rotate(0 17 12.5)"><text x="17" y="18" font-family="Virgil, Segoe UI Emoji" font-size="20px" fill="#5f3dc4" text-anchor="middle" style="white-space: pre;" direction="ltr">4</text></g><g stroke-linecap="round" transform="translate(307.73828125 304.20703125) rotate(0 119.166015625 119.296875)"><path d="M0.23 1.47 C53.95 1.94, 108.9 -0.01, 236.99 1.12 M0.81 -0.73 C79.32 -2.05, 159.55 -1.59, 238.17 0.06 M237.02 -0.28 C239.12 89.48, 239.75 179.14, 238.51 238.85 M237.77 0.28 C240.27 74.08, 239.6 149.19, 238.99 238.58 M239.58 238.84 C185.54 239.75, 131.32 239.5, -1.31 237 M239.15 238.38 C183.74 238.54, 130.03 237.73, -0.19 239.16 M-1.64 238.66 C0.49 167.98, 0.81 99.76, -1.36 -1.47 M0.83 238.14 C1.71 162.08, 2.35 85.89, 0.16 -0.23" stroke="#000000" stroke-width="1" fill="none"></path></g><g transform="translate(323.1875 506.296875) rotate(0 106 12.5)"><text x="0" y="18" font-family="Virgil, Segoe UI Emoji" font-size="20px" fill="#000000" text-anchor="start" style="white-space: pre;" direction="ltr">DDR4 @ 3200 MT/s</text></g><g stroke-linecap="round" transform="translate(304.71875 82.84765625) rotate(0 120.591796875 22.48828125)"><path d="M-1.09 -0.9 C93.84 0.17, 191.96 1.64, 241.81 -1.53 M-0.58 0.23 C92.16 0.02, 182.77 0.15, 240.61 0.31 M240.17 -0.59 C240.06 11.86, 239.7 21.23, 239.41 46.11 M241.08 -0.02 C240.64 17.27, 240.84 35.29, 241.34 44.08 M239.59 44.66 C148.92 43.95, 58.92 43.27, 1.58 46.58 M240.97 44.15 C178.71 45.92, 116.88 45.93, -0.77 44.26 M0.48 43.77 C-0.14 27.12, -0.08 10.04, 1.34 0.36 M-0.85 44.11 C0.38 29.01, -0.24 13.54, -0.65 0.69" stroke="#5f3dc4" stroke-width="1" fill="none"></path></g><g transform="translate(309.71875 92.8359375) rotate(0 115.5 12.5)"><text x="115.5" y="18" font-family="Virgil, Segoe UI Emoji" font-size="20px" fill="#5f3dc4" text-anchor="middle" style="white-space: pre;" direction="ltr">NVME M.2 1 TB</text></g><g stroke-linecap="round" transform="translate(302.412109375 10) rotate(0 120.591796875 22.48828125)"><path d="M-1.15 0.62 C53.07 -0.32, 105.76 0.87, 240.96 1.35 M-0.61 0.21 C52.95 0.87, 105.65 1.13, 241.81 -0.46 M242.41 -0.72 C240.76 9.58, 240.33 21.56, 242.21 45.32 M241.32 -0.49 C241.72 9.58, 240.39 21.45, 240.66 44.25 M239.74 44.16 C155.98 46.46, 71.88 47.69, -1.55 46.27 M240.58 44.65 C155.59 45.5, 69.28 45.42, 0.01 45.32 M1.84 45.16 C1.06 29.93, -1.91 14.65, -1.63 1.18 M-0.87 44.83 C-0.66 27.28, 0.73 10.69, 0.41 0.83" stroke="#862e9c" stroke-width="1" fill="none"></path></g><g transform="translate(307.412109375 19.98828125) rotate(0 115.5 12.5)"><text x="115.5" y="18" font-family="Virgil, Segoe UI Emoji" font-size="20px" fill="#862e9c" text-anchor="middle" style="white-space: pre;" direction="ltr">SATA M.2 512 GB</text></g><g stroke-linecap="round" transform="translate(153.94921875 55.96484375) rotate(0 61 60)"><path d="M-0.59 0.7 C39.51 1.02, 79.12 0.2, 123.11 -0.84 M0.46 0.47 C27.99 0.63, 58.24 1.42, 121.15 0.61 M122.77 1.63 C121.35 49.13, 123.11 96.51, 122.14 119.6 M121.21 -0.4 C121.48 30.03, 120.32 58.78, 122.89 119.58 M120.01 118.54 C94.43 122.46, 65.69 121.37, -0.61 121.98 M121.12 119.28 C92.1 121.67, 62.96 120.67, 0.27 119.02 M-0.32 121.4 C0.93 72.29, -1.46 27.86, -0.04 1.3 M-0.39 120.8 C1.62 84.79, 2.05 48.67, -0.05 0.43" stroke="#1864ab" stroke-width="1" fill="none"></path></g><g transform="translate(158.94921875 78.46484375) rotate(0 56 37.5)"><text x="56" y="18" font-family="Virgil, Segoe UI Emoji" font-size="20px" fill="#1864ab" text-anchor="middle" style="white-space: pre;" direction="ltr">1 TB</text><text x="56" y="43" font-family="Virgil, Segoe UI Emoji" font-size="20px" fill="#1864ab" text-anchor="middle" style="white-space: pre;" direction="ltr">@</text><text x="56" y="68" font-family="Virgil, Segoe UI Emoji" font-size="20px" fill="#1864ab" text-anchor="middle" style="white-space: pre;" direction="ltr">7200 RPM</text></g><g stroke-linecap="round" transform="translate(11.74609375 54.20703125) rotate(0 61 60)"><path d="M1.31 0.06 C30.46 -2.93, 59.47 0.89, 122.2 1.52 M0.48 -0.68 C29.49 -0.39, 57.21 -1.11, 122.63 0.13 M122.77 -1.15 C123.77 23.79, 123.77 51.74, 121.21 121.03 M122.53 -0.02 C121.93 26.64, 121.56 53.03, 121.97 119.35 M122.31 118.67 C90.88 117.45, 63.1 118.59, -0.65 119.44 M122.85 119.55 C78.09 120.88, 35.71 121.06, 0.25 119.95 M1.02 118.24 C-1.38 84.03, 0.18 46.79, 0.59 -1.56 M0.22 120.52 C1.17 75.83, 0.19 30.27, 0.52 0.95" stroke="#1864ab" stroke-width="1" fill="none"></path></g><g transform="translate(16.74609375 76.70703125) rotate(0 56 37.5)"><text x="56" y="18" font-family="Virgil, Segoe UI Emoji" font-size="20px" fill="#1864ab" text-anchor="middle" style="white-space: pre;" direction="ltr">1 TB</text><text x="56" y="43" font-family="Virgil, Segoe UI Emoji" font-size="20px" fill="#1864ab" text-anchor="middle" style="white-space: pre;" direction="ltr">@</text><text x="56" y="68" font-family="Virgil, Segoe UI Emoji" font-size="20px" fill="#1864ab" text-anchor="middle" style="white-space: pre;" direction="ltr">7200 RPM</text></g><g stroke-linecap="round" transform="translate(10 193.21875) rotate(0 134.5 60)"><path d="M1.05 1.01 C92.69 -0.44, 188.08 -1.19, 268.29 0.36 M0.18 -0.46 C64.38 -0.26, 128.71 -0.19, 268.85 0.42 M268.22 1.12 C268.07 46.34, 269.31 93.47, 267.02 118.12 M269.28 0.46 C268.9 47.66, 268.61 93.88, 268.47 120.78 M269 120.65 C176.1 120.78, 84.58 122.43, -0.5 120.15 M268.94 119.68 C177.06 117.72, 85.95 117.69, -0.19 120.32 M2 120.83 C-2.36 81.77, -0.85 42.59, 0.41 -1.01 M0.54 120.98 C0.72 94.55, 0.29 67.33, -0.19 0.13" stroke="#5c940d" stroke-width="1" fill="none"></path></g><g transform="translate(15 215.71875) rotate(0 129.5 37.5)"><text x="129.5" y="18" font-family="Virgil, Segoe UI Emoji" font-size="20px" fill="#5c940d" text-anchor="middle" style="white-space: pre;" direction="ltr">2 TB</text><text x="129.5" y="43" font-family="Virgil, Segoe UI Emoji" font-size="20px" fill="#5c940d" text-anchor="middle" style="white-space: pre;" direction="ltr">@</text><text x="129.5" y="68" font-family="Virgil, Segoe UI Emoji" font-size="20px" fill="#5c940d" text-anchor="middle" style="white-space: pre;" direction="ltr">7200 RPM</text></g><g stroke-linecap="round" transform="translate(12.703125 330.90234375) rotate(0 134.5 60)"><path d="M-0.58 1.23 C78.97 1.3, 155.67 0.16, 269.55 -0.59 M0.76 0.54 C101.95 2.37, 204.71 2.37, 269.39 -0.71 M267.76 -0.49 C267.28 26.74, 269.56 49.91, 269.98 118.48 M268.45 0.99 C269.66 42.19, 270.89 84.37, 268.71 120.38 M268.41 120.1 C209.74 119.36, 153.28 118.68, -0.33 119.16 M268.94 119.98 C161.59 120.36, 55.29 119.75, 0.72 120.76 M1.6 119.32 C-2.51 82.12, -0.88 42.21, -1.68 1.49 M0.77 120.01 C0.74 90.78, -0.01 59.23, -0.21 0.78" stroke="#e67700" stroke-width="1" fill="none"></path></g><g transform="translate(17.703125 353.40234375) rotate(0 129.5 37.5)"><text x="129.5" y="18" font-family="Virgil, Segoe UI Emoji" font-size="20px" fill="#e67700" text-anchor="middle" style="white-space: pre;" direction="ltr">2 TB</text><text x="129.5" y="43" font-family="Virgil, Segoe UI Emoji" font-size="20px" fill="#e67700" text-anchor="middle" style="white-space: pre;" direction="ltr">@</text><text x="129.5" y="68" font-family="Virgil, Segoe UI Emoji" font-size="20px" fill="#e67700" text-anchor="middle" style="white-space: pre;" direction="ltr">5400 RPM</text></g><g stroke-linecap="round" transform="translate(782.8077767153027 166.21972903183672) rotate(0 95.5168202020651 45.825988883071744)"><path d="M-1.12 0.86 C56.49 -1.09, 110.52 -2.83, 189.6 -0.31 M-0.07 0.13 C41.42 -0.46, 83.23 -0.72, 190.27 0.9 M192.66 1.4 C189.65 31.73, 190.38 65.5, 189.58 92.56 M190.5 0.87 C191.04 20.21, 190.14 40.47, 190.03 90.78 M190.78 93.12 C114.57 91.63, 42.06 88.77, 1.25 90.53 M191.57 91.47 C116.86 92.85, 42.75 93.01, 0.08 91.44 M1.23 90.27 C0.73 72.46, -0.16 49.89, 0.51 -0.1 M-0.2 91.93 C0.37 68.88, 0.1 45.24, -0.81 -0.91" stroke="#a61e4d" stroke-width="1" fill="none"></path></g><g transform="translate(787.8077767153027 198.0457179149085) rotate(0 90.5168202020651 14)"><text x="90.51682020206515" y="20" font-family="Virgil, Segoe UI Emoji" font-size="22.21271661400372px" fill="#a61e4d" text-anchor="middle" style="white-space: pre;" direction="ltr">LG 4K @ 60Hz</text></g><g stroke-linecap="round" transform="translate(582.1637915039873 166.88831226572796) rotate(0 95.51682020206516 45.825988883071744)"><path d="M-0.17 1.17 C38.24 -1.22, 77.82 -2.79, 190.45 1.86 M1 -0.75 C66.77 -0.72, 131.13 -1.31, 190.07 -0.18 M193.03 -0.08 C193.19 28.27, 192.12 58.5, 189.25 92.38 M190.25 -0.49 C190.82 19.29, 189.32 38.63, 191.64 92.55 M189.41 90.83 C134.18 91.84, 72.59 92.66, -0.26 90.88 M190.7 92.52 C149.6 90.81, 108.48 90.97, 0.93 92.16 M0.72 92.96 C0.73 72.37, -0.59 49.12, 1.2 -1.16 M0.68 91.79 C-0.39 68.01, -1.07 43.76, -0.37 0.16" stroke="#a61e4d" stroke-width="1" fill="none"></path></g><g transform="translate(587.1637915039873 198.71430114879973) rotate(0 90.51682020206516 14)"><text x="90.51682020206515" y="20" font-family="Virgil, Segoe UI Emoji" font-size="22.21271661400372px" fill="#a61e4d" text-anchor="middle" style="white-space: pre;" direction="ltr">1080p @ 60Hz</text></g><g stroke-linecap="round" transform="translate(983.3051049591725 166.46559512429934) rotate(0 95.5168202020651 45.825988883071744)"><path d="M-0.12 1.75 C53.81 -0.59, 106.89 -1.09, 191.28 -0.86 M0.09 0.51 C72.5 -0.97, 146.84 -0.98, 190.63 -0.36 M192.35 0.75 C191.66 31.3, 189.98 65.79, 192.1 92.84 M190.3 -0.45 C190.23 27.03, 190.34 53.43, 191.3 90.69 M191.88 89.99 C129.17 91.2, 67.56 90.62, -0.91 90.86 M191.08 92.27 C128.66 89.67, 66.43 89.38, -0.42 91.62 M-1.87 90.48 C-1.73 58.49, 0.2 28.68, -1.78 1.88 M0.14 90.89 C-0.35 71.44, 1.48 49.86, -0.87 0.01" stroke="#a61e4d" stroke-width="1" fill="none"></path></g><g transform="translate(988.3051049591725 198.2915840073711) rotate(0 90.5168202020651 14)"><text x="90.51682020206515" y="20" font-family="Virgil, Segoe UI Emoji" font-size="22.21271661400372px" fill="#a61e4d" text-anchor="middle" style="white-space: pre;" direction="ltr">1080p @ 60Hz</text></g><g stroke-linecap="round" transform="translate(736.7359217397632 272.0715519978189) rotate(0 138.13576628256135 25.585170656997377)"><path d="M-0.12 -1.08 C74.58 0.25, 146.53 -0.08, 276.07 -0.56 M0.47 -0.26 C80.27 -1.71, 161.23 -0.71, 276.42 0.54 M275.81 -1.96 C277.07 12.86, 275.05 23.13, 277.95 49.62 M276.44 0.67 C275.11 15.78, 275.05 30.97, 276.96 50.7 M275.84 52.43 C171.86 48.07, 66.33 49.35, 0.75 52.05 M277 50.49 C185.92 49.43, 95.32 49.46, 0.01 51.17 M0.19 53.13 C1.56 39.18, 1.76 29.89, -0.36 -1.94 M0.6 50.38 C-0.88 31.3, 0.14 12.59, -0.38 0.96" stroke="#000000" stroke-width="1" fill="none"></path></g><g transform="translate(741.7359217397632 283.6567226548163) rotate(0 133.13576628256135 14)"><text x="133.13576628256132" y="20" font-family="Virgil, Segoe UI Emoji" font-size="22.1892943804269px" fill="#000000" text-anchor="middle" style="white-space: pre;" direction="ltr">Bose Mini Soundlink</text></g><g stroke-linecap="round" transform="translate(600.750405406204 270.3936237527553) rotate(0 56.31627549485927 56.25588733179799)"><path d="M38.54 4.04 C46.58 0.46, 58.13 0.2, 67.34 1.92 C76.55 3.63, 86.68 8.44, 93.8 14.32 C100.92 20.2, 107.18 28.35, 110.06 37.2 C112.94 46.06, 113.05 58.2, 111.07 67.46 C109.1 76.73, 104.26 85.89, 98.21 92.78 C92.17 99.67, 83.57 105.74, 74.8 108.79 C66.03 111.84, 54.99 112.64, 45.6 111.07 C36.22 109.51, 25.63 105.58, 18.49 99.39 C11.36 93.2, 5.74 82.91, 2.78 73.92 C-0.18 64.94, -1.27 54.5, 0.74 45.49 C2.74 36.47, 7.82 27.16, 14.82 19.83 C21.82 12.51, 37.44 4.34, 42.73 1.55 C48.03 -1.24, 46.38 2.13, 46.59 3.09 M31.12 7.03 C38.67 1.98, 50.11 -0.4, 59.37 -0.3 C68.64 -0.21, 78.85 2.47, 86.72 7.58 C94.59 12.69, 102.08 21.63, 106.61 30.34 C111.14 39.05, 114.43 50.43, 113.91 59.86 C113.4 69.29, 108.94 79.08, 103.51 86.91 C98.08 94.74, 89.43 102.72, 81.32 106.83 C73.22 110.94, 64.37 112.09, 54.86 111.58 C45.34 111.07, 32.16 108.83, 24.25 103.78 C16.34 98.73, 11.33 89.9, 7.38 81.28 C3.43 72.65, 0.08 61.29, 0.54 52.05 C1 42.81, 5.24 33.4, 10.12 25.82 C15.01 18.25, 26.29 9.93, 29.87 6.61 C33.46 3.3, 30.97 5.09, 31.65 5.93" stroke="#364fc7" stroke-width="1" fill="none"></path></g><g transform="translate(605.750405406204 297.6495110845533) rotate(0 51.31627549485927 29)"><text x="51.31627549485925" y="20" font-family="Virgil, Segoe UI Emoji" font-size="22.31142412819964px" fill="#364fc7" text-anchor="middle" style="white-space: pre;" direction="ltr">FiiO Q1 </text><text x="51.31627549485925" y="49" font-family="Virgil, Segoe UI Emoji" font-size="22.31142412819964px" fill="#364fc7" text-anchor="middle" style="white-space: pre;" direction="ltr">Mk2</text></g><g stroke-linecap="round" transform="translate(602.4412739719205 409.60127992965647) rotate(0 56.31627549485927 56.25588733179802)"><path d="M43.64 1.38 C52.04 -1.35, 63 -0.4, 71.8 2.45 C80.6 5.3, 89.85 11.72, 96.43 18.49 C103.01 25.25, 108.98 34.09, 111.29 43.06 C113.61 52.03, 113.09 63.12, 110.33 72.3 C107.57 81.49, 101.46 91.73, 94.76 98.16 C88.05 104.59, 79.36 108.88, 70.1 110.89 C60.84 112.9, 48.31 112.9, 39.2 110.21 C30.08 107.53, 21.84 101.57, 15.42 94.77 C9.01 87.97, 2.8 78.45, 0.71 69.41 C-1.38 60.36, -0.13 49.49, 2.87 40.52 C5.86 31.55, 11.18 22.25, 18.66 15.61 C26.14 8.96, 42.09 3.06, 47.74 0.67 C53.39 -1.71, 52.52 0.21, 52.55 1.27 M44.09 1.41 C52.79 -0.76, 64.52 0.97, 73.72 3.93 C82.93 6.89, 93.11 12.11, 99.32 19.17 C105.52 26.24, 109.09 37.16, 110.96 46.32 C112.84 55.48, 113.41 65.28, 110.55 74.15 C107.69 83.03, 100.76 93.29, 93.78 99.58 C86.8 105.86, 77.89 109.95, 68.66 111.84 C59.43 113.73, 47.31 113.96, 38.41 110.92 C29.51 107.88, 21.26 100.92, 15.26 93.57 C9.25 86.23, 4.61 76.1, 2.37 66.85 C0.13 57.6, -0.9 46.78, 1.82 38.06 C4.54 29.34, 11.18 20.59, 18.69 14.53 C26.2 8.47, 42.24 3.77, 46.87 1.7 C51.5 -0.37, 46.38 1.36, 46.46 2.13" stroke="#364fc7" stroke-width="1" fill="none"></path></g><g transform="translate(607.4412739719205 451.3571672614545) rotate(0 51.31627549485927 14.5)"><text x="51.31627549485925" y="20" font-family="Virgil, Segoe UI Emoji" font-size="22.31142412819964px" fill="#364fc7" text-anchor="middle" style="white-space: pre;" direction="ltr">HD6XX</text></g><g stroke-linecap="round"><g transform="translate(655.2257383367726 384.4704893232123) rotate(0 0.30802196990600805 13.501773837007363)"><path d="M-0.42 -0.27 C-0.34 4.55, -0.26 23.89, -0.38 28.47 M1.56 -1.46 C1.63 3.06, -0.36 21.84, -0.95 26.79" stroke="#364fc7" stroke-width="1" fill="none"></path></g></g><g stroke-linecap="round" transform="translate(737.8487893161796 351.512180504925) rotate(0 140.23856838915935 36.271718798734014)"><path d="M-1.18 -0.32 C110.65 -0.38, 218.17 0.31, 280.33 -0.6 M-0.69 0.53 C81.42 1.49, 162.19 1.23, 280.57 -0.13 M281.84 0.92 C281.44 27.93, 280.63 55.49, 279.67 72.31 M281.09 0.64 C280.23 15.18, 280.86 30.29, 281.13 72.46 M280.7 72.2 C180.13 69.69, 75.95 70.77, -1.19 73.51 M280.86 72.26 C209.36 72.1, 138.38 71.88, 0.26 72.99 M-0.92 72.42 C-0.79 53.52, 0.14 39, 0.78 0.28 M-0.65 72 C0.55 44.62, 0.46 17.8, 0.53 -0.72" stroke="#1864ab" stroke-width="1" fill="none"></path></g><g transform="translate(742.8487893161796 373.78389930365904) rotate(0 135.23856838915935 14)"><text x="135.2385683891593" y="20" font-family="Virgil, Segoe UI Emoji" font-size="22.170257112976927px" fill="#1864ab" text-anchor="middle" style="white-space: pre;" direction="ltr">Logitech MX Keys</text></g><g stroke-linecap="round" transform="translate(739.5957326047362 444.70405642913136) rotate(0 140.23856838915924 36.271718798734014)"><path d="M-0.4 1.47 C72.68 0.42, 144.42 -0.79, 280.43 1.37 M0.11 -0.57 C66.94 -1.05, 134.12 -0.61, 279.72 0.02 M282.08 0.7 C279.37 27.52, 279.11 58.19, 281.33 73.95 M281.09 0.75 C281.5 15.73, 280.2 29.15, 280.04 73.25 M281.7 72.95 C217.35 71.44, 155.96 72.27, 0.96 71.41 M280.47 72.23 C223.2 73.04, 166.13 72.84, 0.33 72.06 M-0.09 72.96 C0.31 52.41, -0.42 30.47, -0.6 -1.76 M-0.86 73.37 C-0.01 53.94, 0.07 33.89, 0.29 -0.95" stroke="#d9480f" stroke-width="1" fill="none"></path></g><g transform="translate(744.5957326047362 466.97577522786537) rotate(0 135.23856838915924 14)"><text x="135.2385683891593" y="20" font-family="Virgil, Segoe UI Emoji" font-size="22.170257112976927px" fill="#d9480f" text-anchor="middle" style="white-space: pre;" direction="ltr">Drop CTRL Halo True</text></g><g stroke-linecap="round" transform="translate(1040.493647998441 440.6985968372343) rotate(0 66.80656210664677 36.43994296726186)"><path d="M-0.1 1.26 C30.92 0.38, 60.32 -0.29, 133.27 0.86 M0.02 0.58 C52.96 0.91, 106 0.47, 132.74 0.23 M133.64 -1.94 C132.15 25.81, 134.97 52.29, 135.29 71.29 M132.68 -0.09 C134.14 17.23, 133.97 33.37, 134.51 73.05 M132.83 73.58 C91.62 72.05, 48.02 74.64, 0.86 71.82 M134.1 73.47 C98.78 73.59, 63.63 73.76, 0.22 73.12 M-1.83 74.48 C-0.54 52.81, 0.88 33.67, -1.41 0.12 M-0.22 73.57 C0.06 53.47, -1.12 32.56, 0.01 -0.12" stroke="#000000" stroke-width="1" fill="none"></path></g><g transform="translate(1045.493647998441 463.13853980449613) rotate(0 61.806562106646766 13.999999999999972)"><text x="61.806562106646766" y="20" font-family="Virgil, Segoe UI Emoji" font-size="22.2328700654971px" fill="#000000" text-anchor="middle" style="white-space: pre;" direction="ltr">G305</text></g><g stroke-linecap="round" transform="translate(1039.9118038071258 353.21415903809134) rotate(0 66.80656210664677 36.43994296726186)"><path d="M1.42 2 C38.73 0.3, 80.2 -0.58, 135.56 1.54 M-0.09 -0.63 C45.39 -1.29, 87.92 -2.07, 133.13 0 M132.41 -0.61 C134.11 22.41, 135.54 42.66, 134.7 73.74 M134.27 -0.7 C133.9 18.86, 133.58 38.48, 133.94 73.46 M134.43 71.61 C80.46 72.87, 28.67 74.73, 0.76 73.75 M132.74 72.92 C92.54 73.75, 49.2 74.05, 0.73 72.24 M1.04 72.88 C-0.66 52.55, -1.18 33.71, -1.07 -0.94 M-0.53 72.68 C-0.8 49.26, -0.77 22.9, 0.39 -0.16" stroke="#000000" stroke-width="1" fill="none"></path></g><g transform="translate(1044.9118038071258 375.6541020053532) rotate(0 61.806562106646766 14)"><text x="61.806562106646766" y="20" font-family="Virgil, Segoe UI Emoji" font-size="22.2328700654971px" fill="#000000" text-anchor="middle" style="white-space: pre;" direction="ltr">G305</text></g><g stroke-linecap="round" transform="translate(1038.111676377508 267.45832768395564) rotate(0 67.35868245463553 36.43994296726186)"><path d="M-0.11 -1.6 C32.75 1.31, 65.87 0.4, 135.48 0.37 M0.79 -0.67 C37.81 0.66, 74.73 0, 133.98 -0.83 M135.79 -1.51 C133.31 27.11, 136.97 56.49, 136.67 72.55 M133.97 0.89 C133.29 26.95, 133.23 54.72, 135.34 73.72 M135.5 73.68 C98.01 75.19, 66.71 74.83, 0.64 72.47 M133.83 73.81 C86.93 74.16, 37.83 74.52, 0.28 72.05 M1.86 73.23 C-0.4 54.57, -0.1 39.18, -1.33 0.76 M-0.22 72.21 C-0.68 46.5, -0.6 19.7, 0.19 -0.53" stroke="#e67700" stroke-width="1" fill="none"></path></g><g transform="translate(1043.111676377508 289.8982706512175) rotate(0 62.35868245463553 14)"><text x="62.35868245463553" y="20" font-family="Virgil, Segoe UI Emoji" font-size="22.23119608564496px" fill="#e67700" text-anchor="middle" style="white-space: pre;" direction="ltr">MX Master</text></g></svg>