<svg xmlns="http://www.w3.org/2000/svg" version="1.1" xmlns:xlink="http://www.w3.org/1999/xlink" xmlns:svgjs="http://svgjs.com/svgjs" width="100%" height="100%" viewBox="0 0 1000 600"><rect width="1000" height="600" x="0" y="0" fill="#e84a4a"/><g><rect width="333.3333333333333" height="333.3333333333333" y="77.77777014838344" fill="#00ffc8" transform="matrix(2.2499999313354513,0,0,2.2499999313354517,0,-249.99999084472722)" x="55.55555725097656"/><path d="M225.0943172212484 297.9611568019902L225.0943172212484 297.9611568019902Q234.20843470710105 297.9611568019902 241.2163485722735 297.5399160778543Q248.262557048731 297.11867535371823 252.9344996255126 296.00813162645045L252.9344996255126 296.00813162645045L252.9344996255126 253.27134543228422Q250.17728761298577 251.89273942602077 243.97356058480034 250.93537414389337Q237.7698335566149 249.97800886176603 228.96207296104302 249.97800886176603L228.96207296104302 249.97800886176603Q223.17958665699365 249.97800886176603 216.70779734981255 250.782195698753Q210.19771343134636 251.6246771470251 204.83646785143304 254.22871071441162Q199.47522227151973 256.8710388930831 195.87552881072077 261.4280976360095Q192.27583534992183 265.9468617676507 192.27583534992183 273.4143109682443L192.27583534992183 273.4143109682443Q192.27583534992183 287.2003710308785 201.12189055677882 292.5616166107918Q209.92965115235071 297.9611568019902 225.0943172212484 297.9611568019902ZM222.91152437799798 169.44444132921086L222.91152437799798 169.44444132921086Q238.34425272589135 169.44444132921086 248.9518600518627 173.46537551414588Q259.55946737783404 177.44801508779574 266.03125668501514 184.76228584324892Q272.54134060348133 192.07655659870213 275.2985526160082 202.14803936668213Q278.05576462853503 212.1812275233771 278.05576462853503 224.32061930075227L278.05576462853503 224.32061930075227L278.05576462853503 313.930009707875Q274.72413344673174 314.50442887715144 268.788468697542 315.4617941592787Q262.8910985596373 316.4191594414061 255.4236493590438 317.26164088967823Q247.99449476973533 318.06582772666525 239.3016180080187 318.755130729797Q230.6087412463021 319.4444337329287 222.06904292972587 319.4444337329287L222.06904292972587 319.4444337329287Q209.92965115235071 319.4444337329287 199.7432845505154 316.95528399939747Q189.51862333739498 314.50442887715144 182.08946874808652 309.10488868595303Q174.66031415877802 303.7436431060396 170.52449613998778 294.89758789918267Q166.38867812119747 286.08982730361083 166.38867812119747 273.68237324724L166.38867812119747 273.68237324724Q166.38867812119747 261.81104374886047 171.21379914311947 253.27134543228422Q176.03892016504147 244.73164711570794 184.31055620262202 239.48528536964992Q192.58219224020257 234.2389236235919 203.61104029031 231.7880685013458Q214.63988834041743 229.29891876781463 226.74098550650749 229.29891876781463L226.74098550650749 229.29891876781463Q230.6087412463021 229.29891876781463 234.7445592650924 229.72015949195068Q238.88037728388267 230.10310560480164 242.59495457853689 230.7924086079333Q246.34782648447623 231.48171161106504 249.10503849700308 232.05613078034148Q251.86225050952993 232.59225533833282 252.9344996255126 232.8603176173285L252.9344996255126 232.8603176173285L252.9344996255126 225.69922530701567Q252.9344996255126 219.38061444497495 251.55589361924916 213.17688741678953Q250.17728761298577 206.97316038860416 246.6158887634719 202.14803936668213Q243.01619530267294 197.32291834476015 236.81246827448751 194.41252788709292Q230.6087412463021 191.5021374294257 220.69043692346247 191.5021374294257L220.69043692346247 191.5021374294257Q208.01492058809595 191.5021374294257 198.47956237810723 193.30198415982514Q188.98249877940364 195.10183089022465 184.31055620262202 197.0165614544794L184.31055620262202 197.0165614544794L181.2469872998144 175.80134680253667Q186.2252867668768 173.58025934800116 197.79025937497553 171.51235033860598Q209.39352659435937 169.44444132921086 222.91152437799798 169.44444132921086Z " fill="#1b284a" transform="matrix(2.2499999313354513,0,0,2.2499999313354517,0,-249.99999084472722)"/><path d="MNaN 244.44444105360233 " fill="#1b284a" transform="matrix(2.2499999313354513,0,0,2.2499999313354517,0,-249.99999084472722)"/></g></svg>